# xmcd
#
# Track frame offsets:
#	150
#	21376
#	39601
#	57728
#	76116
#	92151
#	111634
#	132098
#	151028
#	167335
#	184510
#	202743
#	220782
#	244332
#
# Disc length: 3579 seconds
#
# Revision: 3
# Processed by: cddbd v1.5.1PL0 Copyright (c) Steve Scherf et al.
# Submitted via: audiograbber 1.83.01
#
DISCID=b60df90e
DTITLE=Joss Stone - Mind, Body And Soul
DYEAR=2004
DGENRE=Soul
TTITLE0=Right To Be Wrong
TTITLE1=Jet Lag
TTITLE2=You Had Me
TTITLE3=Spoiled
TTITLE4=Dont Cha Wanna Ride
TTITLE5=Less It Moe
TTITLE6=Security
TTITLE7=Young At Heart
TTITLE8=Snakes And Ladders
TTITLE9=Understand
TTITLE10=Dont Know How
TTITLE11=Torn And Tattered
TTITLE12=Killing Time
TTITLE13=Sleep Like A Child
EXTD=
EXTT0=
EXTT1=
EXTT2=
EXTT3=
EXTT4=
EXTT5=
EXTT6=
EXTT7=
EXTT8=
EXTT9=
EXTT10=
EXTT11=
EXTT12=
EXTT13=
PLAYORDER=
